<svg xmlns="http://www.w3.org/2000/svg" width="21" height="21" viewBox="0 0 21 21">
  <g id="Group_914" data-name="Group 914" transform="translate(-334 -48)">
    <circle id="Ellipse_219" data-name="Ellipse 219" cx="10.5" cy="10.5" r="10.5" transform="translate(334 48)" fill="#8dc73d"/>
    <g id="Icon_ionic-ios-notifications-outline" data-name="Icon ionic-ios-notifications-outline" transform="translate(340 52)">
      <path id="Path_1189" data-name="Path 1189" d="M17.152,28.336a.394.394,0,0,0-.386.31.762.762,0,0,1-.152.331.575.575,0,0,1-.489.179.584.584,0,0,1-.49-.179.762.762,0,0,1-.152-.331.394.394,0,0,0-.386-.31h0a.4.4,0,0,0-.386.483,1.45,1.45,0,0,0,2.828,0,.4.4,0,0,0-.386-.483Z" transform="translate(-11.274 -17.783)" fill="#fff"/>
      <path id="Path_1190" data-name="Path 1190" d="M16.372,12.939c-.468-.617-1.389-.979-1.389-3.743,0-2.837-1.253-3.977-2.42-4.25-.109-.027-.189-.064-.189-.179V4.678a.746.746,0,0,0-.73-.748h-.018a.746.746,0,0,0-.73.748v.088c0,.112-.079.152-.189.179-1.171.277-2.42,1.414-2.42,4.25,0,2.764-.921,3.122-1.389,3.743a.6.6,0,0,0,.483.967H15.9A.6.6,0,0,0,16.372,12.939Zm-1.186.176H8.1a.133.133,0,0,1-.1-.222,3.683,3.683,0,0,0,.638-1.015A6.89,6.89,0,0,0,9.069,9.2,4.663,4.663,0,0,1,9.7,6.557a1.951,1.951,0,0,1,1.177-.839,1.065,1.065,0,0,0,.566-.319.24.24,0,0,1,.362-.006,1.1,1.1,0,0,0,.572.325,1.951,1.951,0,0,1,1.177.839A4.663,4.663,0,0,1,14.192,9.2a6.89,6.89,0,0,0,.435,2.682,3.725,3.725,0,0,0,.654,1.031A.126.126,0,0,1,15.186,13.115Z" transform="translate(-6.775 -3.93)" fill="#fff"/>
    </g>
  </g>
</svg>
