<svg xmlns="http://www.w3.org/2000/svg" width="18.167" height="18.168" viewBox="0 0 18.167 18.168">
  <path id="Path_982" data-name="Path 982" d="M1423.167,1194.382v.4a.486.486,0,0,0-.029.076,1.566,1.566,0,0,1-1.561,1.3h-.252v.227q0,2.43,0,4.86a1.846,1.846,0,0,1-1.922,1.918q-1.274,0-2.547,0c-.437,0-.623-.184-.623-.619q0-1.927,0-3.854a.848.848,0,0,0-.921-.916c-.475,0-.95.013-1.424,0a.894.894,0,0,0-.959.955c.02,1.284.007,2.569.006,3.854a.518.518,0,0,1-.575.583c-.877,0-1.754,0-2.631,0a2.05,2.05,0,0,1-.464-.052,1.83,1.83,0,0,1-1.422-1.833c0-1.637,0-3.274,0-4.91v-.186a.3.3,0,0,0-.054-.018c-.084,0-.168,0-.251,0a1.542,1.542,0,0,1-1.36-.86,3.519,3.519,0,0,1-.176-.482v-.469a2.381,2.381,0,0,1,.773-1.2q3.19-3.174,6.365-6.365a2.4,2.4,0,0,1,1.211-.785h.469a2.376,2.376,0,0,1,1.2.774q3.186,3.2,6.386,6.386A2.291,2.291,0,0,1,1423.167,1194.382Z" transform="translate(-1405.5 -1185.5)" fill="none" stroke="#9e9e9e" stroke-width="1"/>
</svg>
