<svg xmlns="http://www.w3.org/2000/svg" width="18.59" height="18.586" viewBox="0 0 18.59 18.586">
  <g id="Group_844" data-name="Group 844" transform="translate(0.199 0.2)">
    <path id="Path_1174" data-name="Path 1174" d="M1185.289,553.511c-.792,0-1.584.024-2.375-.007a1.654,1.654,0,0,1-1.56-1.614q-.023-2.268,0-4.536a1.652,1.652,0,0,1,1.606-1.625q2.339-.031,4.679,0a1.639,1.639,0,0,1,1.556,1.517c.029.575.017,1.151.018,1.727,0,.918,0,1.836,0,2.754a1.7,1.7,0,0,1-1.8,1.792c-.708,0-1.416,0-2.124,0Zm0-6.473v.005q-1.062,0-2.124,0c-.364,0-.487.125-.487.485q0,2.088,0,4.177c0,.367.131.5.5.5h4.212c.374,0,.508-.135.508-.512q0-2.07,0-4.141c0-.392-.124-.515-.518-.516Z" transform="translate(-1171.026 -535.336)" fill="#9e9e9e" stroke="#fff" stroke-width="0.4"/>
    <path id="Path_1175" data-name="Path 1175" d="M970.821,330c.786,0,1.573-.024,2.359.006a1.652,1.652,0,0,1,1.576,1.619q.024,2.269,0,4.539a1.648,1.648,0,0,1-1.6,1.619q-2.35.031-4.7,0a1.642,1.642,0,0,1-1.545-1.511c-.029-.557-.018-1.116-.018-1.674,0-1.015-.015-2.03.017-3.043A1.655,1.655,0,0,1,968.462,330c.048,0,.1-.009.144-.009h2.215Zm2.614,3.891q0-1.053,0-2.106c0-.332-.136-.474-.467-.475q-2.142,0-4.283,0c-.32,0-.465.145-.465.462q0,2.124,0,4.248c0,.312.14.452.453.453q2.16,0,4.319,0c.31,0,.442-.144.443-.458Q973.436,334.955,973.435,333.893Z" transform="translate(-966.895 -329.993)" fill="#9e9e9e" stroke="#fff" stroke-width="0.4"/>
    <path id="Path_1176" data-name="Path 1176" d="M971.168,553.513c-.786,0-1.573.024-2.358-.007a1.654,1.654,0,0,1-1.569-1.626q-.024-2.26,0-4.521a1.651,1.651,0,0,1,1.6-1.629q2.34-.031,4.681,0a1.64,1.64,0,0,1,1.556,1.519c.028.5.017,1.008.018,1.512q0,1.477,0,2.954a1.706,1.706,0,0,1-1.806,1.806c-.708,0-1.417,0-2.125,0Zm-.011-1.308c.708,0,1.416,0,2.124,0,.361,0,.5-.14.5-.5q0-2.088,0-4.176c0-.348-.133-.484-.477-.484q-2.133,0-4.266,0c-.346,0-.475.135-.475.481q0,2.088,0,4.176c0,.376.129.506.508.507Z" transform="translate(-967.212 -535.338)" fill="#9e9e9e" stroke="#fff" stroke-width="0.4"/>
    <path id="Path_1177" data-name="Path 1177" d="M1190.67,334.011a3.9,3.9,0,1,1-3.845-3.888A3.92,3.92,0,0,1,1190.67,334.011Zm-3.916,2.585a2.577,2.577,0,0,0,2.594-2.574,2.611,2.611,0,0,0-2.544-2.582,2.578,2.578,0,1,0-.05,5.156Z" transform="translate(-1172.479 -330.117)" fill="#9e9e9e" stroke="#fff" stroke-width="0.4"/>
  </g>
</svg>
