<svg xmlns="http://www.w3.org/2000/svg" width="5.563" height="5.563" viewBox="0 0 5.563 5.563">
  <path id="Icon_material-local-phone" data-name="Icon material-local-phone" d="M5.619,6.907A4.681,4.681,0,0,0,7.655,8.944l.68-.68A.307.307,0,0,1,8.65,8.19a3.525,3.525,0,0,0,1.1.176.31.31,0,0,1,.309.309V9.753a.31.31,0,0,1-.309.309A5.253,5.253,0,0,1,4.5,4.809.31.31,0,0,1,4.809,4.5H5.891a.31.31,0,0,1,.309.309,3.511,3.511,0,0,0,.176,1.1.31.31,0,0,1-.077.315Z" transform="translate(-4.5 -4.5)" fill="#8dc73d"/>
</svg>
