<svg xmlns="http://www.w3.org/2000/svg" width="35.443" height="24.367" viewBox="0 0 35.443 24.367">
  <path id="Path_128" data-name="Path 128" d="M31.567,80H3.877A3.881,3.881,0,0,0,0,83.877v16.614a3.881,3.881,0,0,0,3.877,3.877h27.69a3.881,3.881,0,0,0,3.877-3.877V83.877A3.881,3.881,0,0,0,31.567,80ZM3.877,82.215h27.69a1.663,1.663,0,0,1,1.661,1.661v2.215H2.215V83.877A1.663,1.663,0,0,1,3.877,82.215Zm27.69,19.937H3.877a1.663,1.663,0,0,1-1.661-1.661V88.307H33.228v12.184A1.663,1.663,0,0,1,31.567,102.152Z" transform="translate(0 -80)" fill="#004d22"/>
  <path id="Path_129" data-name="Path 129" d="M82.215,307.323H81.108A1.108,1.108,0,0,1,80,306.215v-1.108A1.108,1.108,0,0,1,81.108,304h1.108a1.108,1.108,0,0,1,1.108,1.108v1.108A1.108,1.108,0,0,1,82.215,307.323Z" transform="translate(-74.462 -288.494)" fill="#004d22"/>
</svg>
