<svg id="Group_74" data-name="Group 74" xmlns="http://www.w3.org/2000/svg" xmlns:xlink="http://www.w3.org/1999/xlink" width="44.556" height="32.167" viewBox="0 0 44.556 32.167">
  <defs>
    <linearGradient id="linear-gradient" x1="0.5" y1="-0.269" x2="0.5" y2="2.254" gradientUnits="objectBoundingBox">
      <stop offset="0" stop-color="#ffca3f"/>
      <stop offset="0.097" stop-color="#ca7c22"/>
      <stop offset="0.189" stop-color="#fddb7a"/>
      <stop offset="0.42" stop-color="#ffad45"/>
      <stop offset="0.554" stop-color="#a95f0d"/>
      <stop offset="0.656" stop-color="#ffad45"/>
      <stop offset="0.79" stop-color="#ffff9b"/>
      <stop offset="0.868" stop-color="#ffed7b"/>
      <stop offset="1" stop-color="#ffca3f"/>
    </linearGradient>
    <linearGradient id="linear-gradient-2" x1="0.5" y1="-0.881" x2="0.5" y2="2.278" xlink:href="#linear-gradient"/>
  </defs>
  <path id="Rectangle_172" data-name="Rectangle 172" d="M3.724,0H40.833a3.723,3.723,0,0,1,3.723,3.723v24.72a3.724,3.724,0,0,1-3.724,3.724H3.725A3.725,3.725,0,0,1,0,28.442V3.724A3.724,3.724,0,0,1,3.724,0Z" transform="translate(0 0)" fill="url(#linear-gradient)"/>
  <path id="Path_131" data-name="Path 131" d="M106.768,127.521v-.743H98.607v-9.394h-.815v9.394H91.179a7.181,7.181,0,0,0-6.283-4.631v-4.763h-.814V122.1a7.242,7.242,0,0,0-6.833,4.682H71.243v-9.394h-.814v9.394H62.213v.743h8.216v10.524H62.213v.743h8.216V149.55h.814V138.788h5.832a7.2,7.2,0,0,0,7.008,5.182v5.581H84.9v-5.632a7.136,7.136,0,0,0,6.454-5.131h6.442V149.55h.815V138.788h8.161v-.743H101.9V127.521ZM76.962,138.045H71.243V127.521h5.772a6.114,6.114,0,0,0-.137,1.244,6.285,6.285,0,0,0,1.719,4.268,6.291,6.291,0,0,0-1.719,4.268A5.925,5.925,0,0,0,76.962,138.045Zm7.25,5.2c-3.594,0-6.519-2.664-6.519-5.94a5.645,5.645,0,0,1,1.745-4.017l.255-.251-.255-.251a5.642,5.642,0,0,1-1.745-4.017c0-3.276,2.924-5.94,6.519-5.94s6.519,2.664,6.519,5.94a5.642,5.642,0,0,1-1.745,4.017l-.256.251.256.251a5.645,5.645,0,0,1,1.745,4.017C90.731,140.577,87.808,143.241,84.212,143.241Zm16.875-5.2H91.462a5.927,5.927,0,0,0,.084-.744,6.291,6.291,0,0,0-1.719-4.268,6.285,6.285,0,0,0,1.719-4.268,6.114,6.114,0,0,0-.137-1.244h9.677Z" transform="translate(-62.213 -117.384)" fill="url(#linear-gradient-2)" style="mix-blend-mode: multiply;isolation: isolate"/>
</svg>
