<svg id="Component_7_1" data-name="Component 7 – 1" xmlns="http://www.w3.org/2000/svg" xmlns:xlink="http://www.w3.org/1999/xlink" width="335" height="190.117" viewBox="0 0 335 190.117">
  <defs>
    <linearGradient id="linear-gradient" x1="0.99" y1="0.48" x2="-1.037" y2="0.56" gradientUnits="objectBoundingBox">
      <stop offset="0"/>
      <stop offset="0.258" stop-color="#020202"/>
      <stop offset="0.38" stop-color="#090909"/>
      <stop offset="0.474" stop-color="#161616"/>
      <stop offset="0.553" stop-color="#282828"/>
      <stop offset="0.622" stop-color="#404040"/>
      <stop offset="0.686" stop-color="#5e5e5e"/>
      <stop offset="0.744" stop-color="#818181"/>
      <stop offset="0.799" stop-color="#aaa"/>
      <stop offset="0.849" stop-color="#d6d6d6"/>
      <stop offset="0.887" stop-color="#fff"/>
    </linearGradient>
    <linearGradient id="linear-gradient-2" x1="0.5" y1="-0.269" x2="0.5" y2="2.254" gradientUnits="objectBoundingBox">
      <stop offset="0" stop-color="#ffca3f"/>
      <stop offset="0.097" stop-color="#ca7c22"/>
      <stop offset="0.189" stop-color="#fddb7a"/>
      <stop offset="0.42" stop-color="#ffad45"/>
      <stop offset="0.554" stop-color="#a95f0d"/>
      <stop offset="0.656" stop-color="#ffad45"/>
      <stop offset="0.79" stop-color="#ffff9b"/>
      <stop offset="0.868" stop-color="#ffed7b"/>
      <stop offset="1" stop-color="#ffca3f"/>
    </linearGradient>
    <linearGradient id="linear-gradient-3" x1="0.5" y1="-0.881" x2="0.5" y2="2.278" xlink:href="#linear-gradient-2"/>
  </defs>
  <g id="Group_73" data-name="Group 73">
    <g id="Group_919" data-name="Group 919">
      <g id="Group_918" data-name="Group 918">
        <path id="Rectangle_171" data-name="Rectangle 171" d="M7.5,0H327.5A7.5,7.5,0,0,1,335,7.5V182.619a7.5,7.5,0,0,1-7.5,7.5H7.5a7.5,7.5,0,0,1-7.5-7.5V7.5A7.5,7.5,0,0,1,7.5,0Z" fill="#004d22"/>
      </g>
      <path id="Path_130" data-name="Path 130" d="M329.712,85.318H94.148L218.154,275.434H329.712c7.076,0,12.815-5.226,12.815-11.675V96.991C342.528,90.542,336.789,85.318,329.712,85.318Z" transform="translate(-7.528 -85.318)" fill="url(#linear-gradient)" style="mix-blend-mode: screen;isolation: isolate"/>
    </g>
  </g>
  <g id="Group_74" data-name="Group 74" transform="translate(32.037 49.93)">
    <path id="Rectangle_172" data-name="Rectangle 172" d="M3.724,0H40.833a3.723,3.723,0,0,1,3.723,3.723v24.72a3.724,3.724,0,0,1-3.724,3.724H3.725A3.725,3.725,0,0,1,0,28.442V3.724A3.724,3.724,0,0,1,3.724,0Z" transform="translate(0 0)" fill="url(#linear-gradient-2)"/>
    <path id="Path_131" data-name="Path 131" d="M106.768,127.521v-.743H98.607v-9.394h-.815v9.394H91.179a7.181,7.181,0,0,0-6.283-4.631v-4.763h-.814V122.1a7.242,7.242,0,0,0-6.833,4.682H71.243v-9.394h-.814v9.394H62.213v.743h8.216v10.524H62.213v.743h8.216V149.55h.814V138.788h5.832a7.2,7.2,0,0,0,7.008,5.182v5.581H84.9v-5.632a7.136,7.136,0,0,0,6.454-5.131h6.442V149.55h.815V138.788h8.161v-.743H101.9V127.521ZM76.962,138.045H71.243V127.521h5.772a6.114,6.114,0,0,0-.137,1.244,6.285,6.285,0,0,0,1.719,4.268,6.291,6.291,0,0,0-1.719,4.268A5.925,5.925,0,0,0,76.962,138.045Zm7.25,5.2c-3.594,0-6.519-2.664-6.519-5.94a5.645,5.645,0,0,1,1.745-4.017l.255-.251-.255-.251a5.642,5.642,0,0,1-1.745-4.017c0-3.276,2.924-5.94,6.519-5.94s6.519,2.664,6.519,5.94a5.642,5.642,0,0,1-1.745,4.017l-.256.251.256.251a5.645,5.645,0,0,1,1.745,4.017C90.731,140.577,87.808,143.241,84.212,143.241Zm16.875-5.2H91.462a5.927,5.927,0,0,0,.084-.744,6.291,6.291,0,0,0-1.719-4.268,6.285,6.285,0,0,0,1.719-4.268,6.114,6.114,0,0,0-.137-1.244h9.677Z" transform="translate(-62.213 -117.384)" fill="url(#linear-gradient-3)" style="mix-blend-mode: multiply;isolation: isolate"/>
  </g>
  <g id="Group_75" data-name="Group 75" transform="translate(32.846 100.303)">
    <path id="Path_132" data-name="Path 132" d="M63.73,153.824l-1.044-.993,3.131-3.1h2.6V163.9H66.684V151.395a1.239,1.239,0,0,1,.068-.526l-.068-.061Z" transform="translate(-62.686 -149.735)" fill="#fff"/>
    <path id="Path_133" data-name="Path 133" d="M67.988,163.9v-2.146a1.242,1.242,0,0,1,.058-.475,1.461,1.461,0,0,1,.366-.355l7.375-6.132a1.028,1.028,0,0,0,.357-.416,2.026,2.026,0,0,0,.067-.6v-1.8a1.5,1.5,0,0,0-.034-.4.626.626,0,0,0-.232-.232,1.077,1.077,0,0,0-.311-.171,2.456,2.456,0,0,0-.511-.031H71.167a2.4,2.4,0,0,0-.511.031,1.076,1.076,0,0,0-.311.171.626.626,0,0,0-.232.232,1.357,1.357,0,0,0-.034.4v.383H68.212v-.808a1.227,1.227,0,0,1,.535-1.014l.53-.4a1.768,1.768,0,0,1,1.068-.4h5.6a1.759,1.759,0,0,1,1.065.4l.533.4a1.227,1.227,0,0,1,.535,1.014v2.854a2.027,2.027,0,0,1-.067.6,1.023,1.023,0,0,1-.357.413L70.3,161.474a1.6,1.6,0,0,0-.378.4,1.436,1.436,0,0,0-.067.526v.081h8.223V163.9Z" transform="translate(-58.926 -149.735)" fill="#fff"/>
    <path id="Path_134" data-name="Path 134" d="M84.837,156.739l.867.648a1.315,1.315,0,0,1,.388.363,1.967,1.967,0,0,1,.056.607v3.726a1.452,1.452,0,0,1-.077.565,1.764,1.764,0,0,1-.344.425l-.4.366a1.555,1.555,0,0,1-1.046.464H77.973a1.765,1.765,0,0,1-1.068-.4l-.532-.406a1.22,1.22,0,0,1-.533-1.011v-.811h1.866v.385a1.456,1.456,0,0,0,.032.4.65.65,0,0,0,.234.23,1.145,1.145,0,0,0,.311.174,2.679,2.679,0,0,0,.509.03h4.4a2.679,2.679,0,0,0,.509-.03,1.146,1.146,0,0,0,.311-.174.649.649,0,0,0,.234-.23,1.454,1.454,0,0,0,.032-.4V158.6a.967.967,0,0,0-.4-.769l-.333-.262a1.846,1.846,0,0,0-.465-.3,2.319,2.319,0,0,0-.557-.042H78.971v-1.3h3.244a2.307,2.307,0,0,0,.555-.041,1.837,1.837,0,0,0,.467-.3l.333-.245a1.492,1.492,0,0,0,.391-.353,1.4,1.4,0,0,0,.053-.5v-2.51a1.446,1.446,0,0,0-.033-.4.621.621,0,0,0-.234-.232,1.077,1.077,0,0,0-.311-.171,2.4,2.4,0,0,0-.511-.031H79.262a2.609,2.609,0,0,0-.535.031,1.073,1.073,0,0,0-.309.171.649.649,0,0,0-.234.232,1.357,1.357,0,0,0-.034.4v.383H76.284v-.808a1.225,1.225,0,0,1,.533-1.014l.535-.4a1.759,1.759,0,0,1,1.065-.4h5.331a1.768,1.768,0,0,1,1.068.4l.53.4a1.227,1.227,0,0,1,.535,1.014v3.32a1.151,1.151,0,0,1-.053.445,1.367,1.367,0,0,1-.347.3l-.644.486a1.114,1.114,0,0,1-.622.263v.1A1.107,1.107,0,0,1,84.837,156.739Z" transform="translate(-53.357 -149.735)" fill="#fff"/>
    <path id="Path_135" data-name="Path 135" d="M91.557,155.2h1.866v4.047h2.133v1.417H93.423V163.9H91.557v-3.239H83.691V159l7.6-9.269h2.085l-7.4,9.047a1.292,1.292,0,0,1-.376.385v.081h5.955Z" transform="translate(-47.79 -149.735)" fill="#fff"/>
    <path id="Path_136" data-name="Path 136" d="M105.977,154.592H111a1.77,1.77,0,0,1,1.068.406l.53.4a1.222,1.222,0,0,1,.535,1.012v5.669a1.222,1.222,0,0,1-.535,1.011l-.53.406a1.765,1.765,0,0,1-1.068.4h-6.664a1.765,1.765,0,0,1-1.068-.4l-.533-.406a1.227,1.227,0,0,1-.532-1.011v-.811h1.866v.385a1.366,1.366,0,0,0,.034.4c.019.061.1.137.232.23a1.146,1.146,0,0,0,.311.174,2.689,2.689,0,0,0,.511.03h5.02a2.7,2.7,0,0,0,.511-.03,1.146,1.146,0,0,0,.311-.174.625.625,0,0,0,.232-.23,1.364,1.364,0,0,0,.034-.4v-4.818a1.372,1.372,0,0,0-.034-.4.637.637,0,0,0-.232-.23,1.129,1.129,0,0,0-.311-.173,2.527,2.527,0,0,0-.511-.031h-4.287a1.768,1.768,0,0,0-1.068.4,1.1,1.1,0,0,0-.533.81h-1.866v-7.488h10.443v1.417h-8.577v4.433h.091c.012-.148.176-.33.487-.547A2.164,2.164,0,0,1,105.977,154.592Z" transform="translate(-34.663 -149.735)" fill="#fff"/>
    <path id="Path_137" data-name="Path 137" d="M122.048,152.365h-1.866v-.383a1.448,1.448,0,0,0-.032-.4.65.65,0,0,0-.234-.232,1.077,1.077,0,0,0-.311-.171,2.4,2.4,0,0,0-.511-.031h-5.334a2.456,2.456,0,0,0-.511.031,1.073,1.073,0,0,0-.309.171.649.649,0,0,0-.234.232,1.523,1.523,0,0,0-.032.4v4.027h.089l.111-.1a2.187,2.187,0,0,1,1.222-.708h6.045a1.766,1.766,0,0,1,1.065.4l.533.4a1.232,1.232,0,0,1,.532,1.014v5.06a1.227,1.227,0,0,1-.532,1.011l-.533.406a1.756,1.756,0,0,1-1.065.4h-7.2a1.756,1.756,0,0,1-1.065-.4l-.535-.406a1.229,1.229,0,0,1-.533-1.011V151.557a1.234,1.234,0,0,1,.533-1.014l.535-.4a1.759,1.759,0,0,1,1.065-.4h6.977a1.759,1.759,0,0,1,1.065.4l.533.4a1.227,1.227,0,0,1,.535,1.014Zm-1.646,9.291v-4.209a1.357,1.357,0,0,0-.034-.4.608.608,0,0,0-.229-.232,1.093,1.093,0,0,0-.315-.173,2.562,2.562,0,0,0-.511-.03h-5a2.619,2.619,0,0,0-.567.039,3.312,3.312,0,0,0-.544.265q-.51.283-.533.5v4.231a1.531,1.531,0,0,0,.032.4.649.649,0,0,0,.234.23,1.142,1.142,0,0,0,.309.174,2.754,2.754,0,0,0,.511.03h5.555a2.689,2.689,0,0,0,.511-.03,1.106,1.106,0,0,0,.315-.174c.13-.093.21-.17.229-.23A1.364,1.364,0,0,0,120.4,161.656Z" transform="translate(-28.561 -149.735)" fill="#fff"/>
    <path id="Path_138" data-name="Path 138" d="M120.876,163.9l7.308-12.346a1.029,1.029,0,0,1,.376-.4h-9.618v-1.417h11.4v1.538L122.92,163.9Z" transform="translate(-22.79 -149.735)" fill="#fff"/>
    <path id="Path_139" data-name="Path 139" d="M127.87,157.648l1.046-.788a1.1,1.1,0,0,1,.62-.265v-.1a1.106,1.106,0,0,1-.62-.263l-.735-.528a.811.811,0,0,1-.354-.687v-3.461a1.231,1.231,0,0,1,.53-1.014l.535-.4a1.768,1.768,0,0,1,1.068-.4h6.8a1.768,1.768,0,0,1,1.068.4l.532.4a1.227,1.227,0,0,1,.535,1.014v3.461a.821.821,0,0,1-.355.687l-.733.528a1.115,1.115,0,0,1-.62.263v.1a1.107,1.107,0,0,1,.62.265l1.044.788a.914.914,0,0,1,.311.791v3.644a1.222,1.222,0,0,1-.535,1.011c-.116.081-.3.216-.533.406a1.756,1.756,0,0,1-1.065.4h-7.331a1.765,1.765,0,0,1-1.068-.4c-.238-.19-.415-.325-.532-.406a1.22,1.22,0,0,1-.533-1.011v-3.644A.913.913,0,0,1,127.87,157.648Zm7.732-.223h-4.487a2.025,2.025,0,0,0-.444.031,1.458,1.458,0,0,0-.381.232l-.487.366a1.059,1.059,0,0,0-.333.3,1.257,1.257,0,0,0-.044.425v2.874a1.366,1.366,0,0,0,.034.4.65.65,0,0,0,.234.23,1.142,1.142,0,0,0,.309.174,2.7,2.7,0,0,0,.511.03H136.2a2.7,2.7,0,0,0,.511-.03,1.146,1.146,0,0,0,.311-.174.626.626,0,0,0,.232-.23,1.5,1.5,0,0,0,.034-.4v-2.874a1.428,1.428,0,0,0-.043-.425,1.117,1.117,0,0,0-.335-.3l-.491-.366a1.43,1.43,0,0,0-.378-.232A2.006,2.006,0,0,0,135.6,157.425Zm.333-6.273h-5.155a2.391,2.391,0,0,0-.509.031,1.075,1.075,0,0,0-.311.171.621.621,0,0,0-.234.232,1.449,1.449,0,0,0-.032.4v2.631a1.36,1.36,0,0,0,.043.445,1.065,1.065,0,0,0,.311.3l.578.427a1.167,1.167,0,0,0,.344.192,2.8,2.8,0,0,0,.523.03h3.733a2.753,2.753,0,0,0,.521-.03,1.127,1.127,0,0,0,.344-.192l.578-.427a1.034,1.034,0,0,0,.313-.3,1.451,1.451,0,0,0,.044-.445v-2.631a1.359,1.359,0,0,0-.034-.4.621.621,0,0,0-.234-.232,1.073,1.073,0,0,0-.309-.171A2.412,2.412,0,0,0,135.936,151.152Z" transform="translate(-16.678 -149.735)" fill="#fff"/>
    <path id="Path_140" data-name="Path 140" d="M146.526,161.271h1.865v.385a1.508,1.508,0,0,0,.034.4.65.65,0,0,0,.234.23,1.142,1.142,0,0,0,.309.174,2.772,2.772,0,0,0,.514.03h5.331a2.69,2.69,0,0,0,.511-.03,1.146,1.146,0,0,0,.311-.174.626.626,0,0,0,.232-.23,1.364,1.364,0,0,0,.034-.4v-4.028h-.091l-.109.1a2.191,2.191,0,0,1-1.222.708h-6.042a1.767,1.767,0,0,1-1.068-.4l-.532-.406a1.218,1.218,0,0,1-.533-1.011v-5.061a1.225,1.225,0,0,1,.533-1.014l.532-.4a1.768,1.768,0,0,1,1.068-.4h7.2a1.751,1.751,0,0,1,1.065.4l.533.4a1.227,1.227,0,0,1,.535,1.014v10.526a1.222,1.222,0,0,1-.535,1.011l-.533.406a1.749,1.749,0,0,1-1.065.4h-6.977a1.756,1.756,0,0,1-1.065-.4l-.535-.406a1.229,1.229,0,0,1-.533-1.011Zm1.646-9.29v4.209a1.376,1.376,0,0,0,.033.4.662.662,0,0,0,.234.234,1.2,1.2,0,0,0,.309.171,2.4,2.4,0,0,0,.511.031h5a2.575,2.575,0,0,0,.567-.04,3.135,3.135,0,0,0,.544-.265c.342-.188.518-.355.535-.5v-4.231a1.358,1.358,0,0,0-.034-.4.627.627,0,0,0-.232-.232,1.077,1.077,0,0,0-.311-.171,2.4,2.4,0,0,0-.511-.031h-5.555a2.411,2.411,0,0,0-.511.031,1.072,1.072,0,0,0-.309.171.649.649,0,0,0-.234.232A1.376,1.376,0,0,0,148.172,151.982Z" transform="translate(-3.385 -149.735)" fill="#fff"/>
    <path id="Path_141" data-name="Path 141" d="M157.5,149.735h8.8a1.759,1.759,0,0,1,1.065.4l.533.4a1.236,1.236,0,0,1,.535,1.014v10.526a1.231,1.231,0,0,1-.535,1.011l-.533.406a1.756,1.756,0,0,1-1.065.4h-8.8a1.756,1.756,0,0,1-1.065-.4l-.533-.406a1.23,1.23,0,0,1-.535-1.011V151.557a1.236,1.236,0,0,1,.535-1.014l.533-.4A1.759,1.759,0,0,1,157.5,149.735Zm9.067,11.921v-9.674a1.61,1.61,0,0,0-.032-.4.65.65,0,0,0-.234-.232,1.042,1.042,0,0,0-.315-.171,2.4,2.4,0,0,0-.511-.031h-7.153a2.457,2.457,0,0,0-.511.031,1.1,1.1,0,0,0-.311.171.627.627,0,0,0-.232.232,1.5,1.5,0,0,0-.034.4v9.674a1.5,1.5,0,0,0,.034.4.627.627,0,0,0,.232.23,1.17,1.17,0,0,0,.311.174,2.754,2.754,0,0,0,.511.03h7.153a2.688,2.688,0,0,0,.511-.03,1.105,1.105,0,0,0,.315-.174.65.65,0,0,0,.234-.23A1.618,1.618,0,0,0,166.563,161.656Z" transform="translate(3.039 -149.735)" fill="#fff"/>
    <path id="Path_142" data-name="Path 142" d="M165.95,153.824l-1.046-.993,3.135-3.1h2.6V163.9H168.9V151.395a1.339,1.339,0,0,1,.067-.526l-.067-.061Z" transform="translate(9.805 -149.735)" fill="#fff"/>
    <path id="Path_143" data-name="Path 143" d="M170.209,163.9v-2.146a1.315,1.315,0,0,1,.053-.475,1.515,1.515,0,0,1,.367-.355l7.379-6.132a1.014,1.014,0,0,0,.354-.416,2.025,2.025,0,0,0,.067-.6v-1.8a1.355,1.355,0,0,0-.034-.4.634.634,0,0,0-.234-.232,1.072,1.072,0,0,0-.309-.171,2.411,2.411,0,0,0-.511-.031h-3.957a2.39,2.39,0,0,0-.509.031,1.075,1.075,0,0,0-.311.171.648.648,0,0,0-.234.232,1.448,1.448,0,0,0-.033.4v.383H170.43v-.808a1.225,1.225,0,0,1,.533-1.014l.535-.4a1.752,1.752,0,0,1,1.065-.4h5.6a1.768,1.768,0,0,1,1.068.4l.532.4a1.225,1.225,0,0,1,.533,1.014v2.854a1.97,1.97,0,0,1-.067.6.983.983,0,0,1-.354.413l-7.353,6.052a1.45,1.45,0,0,0-.378.4,1.364,1.364,0,0,0-.067.526v.081h8.218V163.9Z" transform="translate(13.567 -149.735)" fill="#fff"/>
    <path id="Path_144" data-name="Path 144" d="M196.8,156.739l.868.648a1.365,1.365,0,0,1,.388.363,1.97,1.97,0,0,1,.056.607v3.726a1.487,1.487,0,0,1-.077.565,1.756,1.756,0,0,1-.347.425l-.4.366a1.561,1.561,0,0,1-1.044.464h-6.309a1.765,1.765,0,0,1-1.068-.4l-.535-.406a1.225,1.225,0,0,1-.53-1.011v-.811h1.865v.385a1.362,1.362,0,0,0,.034.4.62.62,0,0,0,.234.23,1.141,1.141,0,0,0,.309.174,2.7,2.7,0,0,0,.511.03h4.4a2.716,2.716,0,0,0,.511-.03,1.146,1.146,0,0,0,.311-.174.649.649,0,0,0,.234-.23,1.617,1.617,0,0,0,.032-.4V158.6a.967.967,0,0,0-.4-.769l-.335-.262a1.757,1.757,0,0,0-.467-.3,2.265,2.265,0,0,0-.554-.042H190.94v-1.3h3.244a2.279,2.279,0,0,0,.554-.041,1.869,1.869,0,0,0,.468-.3l.333-.245a1.457,1.457,0,0,0,.388-.353,1.372,1.372,0,0,0,.056-.5v-2.51a1.36,1.36,0,0,0-.034-.4.627.627,0,0,0-.232-.232,1.1,1.1,0,0,0-.311-.171,2.412,2.412,0,0,0-.511-.031h-3.665a2.587,2.587,0,0,0-.535.031,1.1,1.1,0,0,0-.311.171.626.626,0,0,0-.232.232,1.359,1.359,0,0,0-.034.4v.383h-1.866v-.808a1.227,1.227,0,0,1,.535-1.014l.53-.4a1.768,1.768,0,0,1,1.068-.4h5.333a1.751,1.751,0,0,1,1.065.4l.533.4a1.227,1.227,0,0,1,.535,1.014v3.32a1.089,1.089,0,0,1-.058.445,1.217,1.217,0,0,1-.344.3l-.644.486a1.1,1.1,0,0,1-.62.263v.1A1.1,1.1,0,0,1,196.8,156.739Z" transform="translate(26.049 -149.735)" fill="#fff"/>
    <path id="Path_145" data-name="Path 145" d="M203.524,155.2h1.866v4.047h2.133v1.417H205.39V163.9h-1.866v-3.239h-7.866V159l7.6-9.269h2.085l-7.4,9.047a1.273,1.273,0,0,1-.378.385v.081h5.953Z" transform="translate(31.615 -149.735)" fill="#fff"/>
    <path id="Path_146" data-name="Path 146" d="M208.2,154.592h5.023a1.769,1.769,0,0,1,1.065.406l.535.4a1.228,1.228,0,0,1,.532,1.012v5.669a1.227,1.227,0,0,1-.532,1.011l-.535.406a1.764,1.764,0,0,1-1.065.4h-6.666a1.765,1.765,0,0,1-1.068-.4l-.532-.406a1.22,1.22,0,0,1-.533-1.011v-.811h1.866v.385a1.457,1.457,0,0,0,.032.4.649.649,0,0,0,.234.23,1.145,1.145,0,0,0,.311.174,2.677,2.677,0,0,0,.509.03H212.4a2.7,2.7,0,0,0,.511-.03,1.148,1.148,0,0,0,.313-.174.617.617,0,0,0,.231-.23,1.364,1.364,0,0,0,.034-.4v-4.818a1.371,1.371,0,0,0-.034-.4.628.628,0,0,0-.231-.23,1.131,1.131,0,0,0-.313-.173,2.526,2.526,0,0,0-.511-.031h-4.287a1.768,1.768,0,0,0-1.068.4,1.094,1.094,0,0,0-.53.81h-1.866v-7.488h10.441v1.417H206.51v4.433h.085c.017-.148.178-.33.492-.547A2.15,2.15,0,0,1,208.2,154.592Z" transform="translate(37.829 -149.735)" fill="#fff"/>
    <path id="Path_147" data-name="Path 147" d="M224.266,152.365H222.4v-.383a1.359,1.359,0,0,0-.034-.4c-.019-.061-.1-.139-.232-.232a1.056,1.056,0,0,0-.311-.171,2.412,2.412,0,0,0-.511-.031H215.98a2.412,2.412,0,0,0-.511.031,1.1,1.1,0,0,0-.311.171.627.627,0,0,0-.232.232,1.361,1.361,0,0,0-.034.4v4.027h.087l.113-.1a2.182,2.182,0,0,1,1.222-.708h6.042a1.759,1.759,0,0,1,1.065.4l.535.4a1.225,1.225,0,0,1,.533,1.014v5.06a1.22,1.22,0,0,1-.533,1.011l-.535.406a1.749,1.749,0,0,1-1.065.4h-7.2a1.769,1.769,0,0,1-1.068-.4l-.53-.406a1.222,1.222,0,0,1-.535-1.011V151.557a1.227,1.227,0,0,1,.535-1.014l.53-.4a1.772,1.772,0,0,1,1.068-.4h6.975a1.768,1.768,0,0,1,1.068.4l.533.4a1.232,1.232,0,0,1,.532,1.014Zm-1.643,9.291v-4.209a1.357,1.357,0,0,0-.034-.4.634.634,0,0,0-.234-.232,1.126,1.126,0,0,0-.309-.173,2.573,2.573,0,0,0-.511-.03h-5a2.56,2.56,0,0,0-.564.039,3.118,3.118,0,0,0-.544.265c-.344.188-.521.357-.535.5v4.231a1.367,1.367,0,0,0,.034.4.627.627,0,0,0,.232.23,1.171,1.171,0,0,0,.311.174,2.7,2.7,0,0,0,.511.03h5.555a2.7,2.7,0,0,0,.511-.03,1.142,1.142,0,0,0,.309-.174.635.635,0,0,0,.234-.23A1.364,1.364,0,0,0,222.624,161.656Z" transform="translate(43.932 -149.735)" fill="#fff"/>
  </g>
  <g id="Group_76" data-name="Group 76" transform="translate(33.586 149.003)">
    <path id="Path_148" data-name="Path 148" d="M71.455,190.63l.056-.017a2.68,2.68,0,0,1-.13-.81v-8.791h1.555v11.812H71.381L64.6,183.34l-.056.017a2.628,2.628,0,0,1,.13.81v8.657H63.119V181.012h1.555Z" transform="translate(-63.119 -181.012)" fill="#fff"/>
    <path id="Path_149" data-name="Path 149" d="M77.041,190.943h-.077c0,.134-.133.274-.407.42a2.968,2.968,0,0,1-.455.221,2.112,2.112,0,0,1-.45.033H72.484a1.463,1.463,0,0,1-.89-.338l-.444-.336a1.024,1.024,0,0,1-.444-.845v-2.024a1.018,1.018,0,0,1,.444-.844l.444-.338a1.463,1.463,0,0,1,.89-.338H75.8a2.2,2.2,0,0,1,.443.026.723.723,0,0,1,.241.145.449.449,0,0,1,.224.335h.074v-2.009a1.288,1.288,0,0,0-.027-.328.557.557,0,0,0-.2-.195,1,1,0,0,0-.256-.142,2.153,2.153,0,0,0-.427-.025h-3a1.626,1.626,0,0,0-.455.042,2.181,2.181,0,0,0-.455.3l-1.111-.845.448-.336a2.192,2.192,0,0,1,.453-.3,1.6,1.6,0,0,1,.451-.042h4.353a1.473,1.473,0,0,1,.89.338l.444.336a1.023,1.023,0,0,1,.444.845v5.045a1.26,1.26,0,0,0,.027.329.518.518,0,0,0,.2.195.558.558,0,0,1,.193.195,1.253,1.253,0,0,1,.027.329v.827h-.648a1.67,1.67,0,0,1-.455-.042,1.51,1.51,0,0,1-.344-.212C77.138,191.217,77.041,191.077,77.041,190.943Zm-4.781-2.516v1.317a1.261,1.261,0,0,0,.027.329.546.546,0,0,0,.2.195.928.928,0,0,0,.258.143,2.179,2.179,0,0,0,.427.023h2.26a1.842,1.842,0,0,0,.453-.033,2.636,2.636,0,0,0,.455-.22,1.351,1.351,0,0,0,.388-.269.7.7,0,0,0,.056-.338v-1.148a1.271,1.271,0,0,0-.027-.329.545.545,0,0,0-.2-.195.908.908,0,0,0-.256-.142,1.994,1.994,0,0,0-.427-.027h-2.7a1.973,1.973,0,0,0-.427.027.911.911,0,0,0-.258.142.545.545,0,0,0-.2.195A1.268,1.268,0,0,0,72.26,188.426Z" transform="translate(-57.739 -179.805)" fill="#fff"/>
    <path id="Path_150" data-name="Path 150" d="M83.933,183.99h.077c.01-.1.13-.226.35-.372l.277-.185a2.632,2.632,0,0,1,.455-.219,1.949,1.949,0,0,1,.455-.034H88.49a1.481,1.481,0,0,1,.892.338l.444.336a1.025,1.025,0,0,1,.443.845v6.918H88.714v-6.566a1.4,1.4,0,0,0-.026-.328.551.551,0,0,0-.2-.195,1,1,0,0,0-.256-.142,2.129,2.129,0,0,0-.427-.025H85.771a2.049,2.049,0,0,0-.455.033,2.642,2.642,0,0,0-.455.22c-.284.159-.434.3-.443.438v6.566H82.862v-6.566a1.12,1.12,0,0,0-.029-.328.538.538,0,0,0-.193-.195.982.982,0,0,0-.262-.142,2.087,2.087,0,0,0-.424-.025H80.081a2.063,2.063,0,0,0-.453.033,2.772,2.772,0,0,0-.455.22,1.33,1.33,0,0,0-.386.271.666.666,0,0,0-.058.338v6.395H77.174v-6.566a1.4,1.4,0,0,0-.026-.328.563.563,0,0,0-.195-.195.522.522,0,0,1-.2-.193,1.286,1.286,0,0,1-.026-.33v-.825h.646a1.61,1.61,0,0,1,.455.042,1.511,1.511,0,0,1,.344.212c.2.146.3.287.3.42h.074c0-.134.133-.274.407-.42a2.516,2.516,0,0,1,.455-.219,1.93,1.93,0,0,1,.455-.034H82.64a1.464,1.464,0,0,1,.887.338C83.787,183.732,83.925,183.887,83.933,183.99Z" transform="translate(-53.466 -179.805)" fill="#fff"/>
    <path id="Path_151" data-name="Path 151" d="M92.916,190.1l1.113.845-.444.336a2.23,2.23,0,0,1-.455.3,1.647,1.647,0,0,1-.453.042H87.732a1.466,1.466,0,0,1-.89-.338l-.444-.336a1.024,1.024,0,0,1-.444-.845v-5.4a1.023,1.023,0,0,1,.444-.845l.444-.336a1.477,1.477,0,0,1,.89-.338H92.05a1.731,1.731,0,0,1,.887.338l.465.336a.977.977,0,0,1,.443.845v3.458H87.508v1.587a1.261,1.261,0,0,0,.027.329.546.546,0,0,0,.2.195.928.928,0,0,0,.258.143,2.179,2.179,0,0,0,.427.023h3.591a1.567,1.567,0,0,0,.455-.041A2.233,2.233,0,0,0,92.916,190.1Zm-.627-3.038v-2.009a1.186,1.186,0,0,0-.029-.328.532.532,0,0,0-.195-.195.953.953,0,0,0-.26-.142,2.087,2.087,0,0,0-.424-.025H88.418a2.129,2.129,0,0,0-.427.025,1,1,0,0,0-.258.142.557.557,0,0,0-.2.195,1.285,1.285,0,0,0-.027.328v2.009Z" transform="translate(-46.926 -179.805)" fill="#fff"/>
    <path id="Path_152" data-name="Path 152" d="M101.133,187.423H96.706a1.461,1.461,0,0,1-.889-.336l-.5-.388a.827.827,0,0,1-.39-.674V182.53a1.026,1.026,0,0,1,.443-.842l.448-.338a1.454,1.454,0,0,1,.889-.338h4.926a1.462,1.462,0,0,1,.889.338l.444.338a1.019,1.019,0,0,1,.448.842v.674h-1.561v-.321a1.218,1.218,0,0,0-.026-.329.533.533,0,0,0-.195-.195.913.913,0,0,0-.26-.142,2.045,2.045,0,0,0-.424-.026H97.39a2.045,2.045,0,0,0-.424.026.912.912,0,0,0-.26.142.534.534,0,0,0-.195.195,1.172,1.172,0,0,0-.029.329v2.666a1.162,1.162,0,0,0,.029.33.521.521,0,0,0,.195.193.9.9,0,0,0,.26.145,2.049,2.049,0,0,0,.424.026h4.427a1.47,1.47,0,0,1,.891.336l.444.338a1.017,1.017,0,0,1,.444.842V191.3a1.024,1.024,0,0,1-.444.845l-.444.336a1.463,1.463,0,0,1-.891.338h-5.3a1.465,1.465,0,0,1-.887-.338l-.444-.336a1.024,1.024,0,0,1-.444-.845v-.674H96.3v.321a1.262,1.262,0,0,0,.027.329.559.559,0,0,0,.193.195.987.987,0,0,0,.262.143,2.179,2.179,0,0,0,.427.023h3.926a2.2,2.2,0,0,0,.427-.023.951.951,0,0,0,.256-.143.546.546,0,0,0,.2-.195,1.26,1.26,0,0,0,.027-.329v-2.834a1.257,1.257,0,0,0-.027-.33.544.544,0,0,0-.2-.193.966.966,0,0,0-.256-.145A2.113,2.113,0,0,0,101.133,187.423Z" transform="translate(-40.693 -181.012)" fill="#fff"/>
    <path id="Path_153" data-name="Path 153" d="M106.072,191.617h-2.907a1.471,1.471,0,0,1-.892-.338l-.443-.336a1.024,1.024,0,0,1-.444-.845v-6.918h1.555v6.565a1.262,1.262,0,0,0,.027.329.518.518,0,0,0,.2.195.924.924,0,0,0,.256.143,2.179,2.179,0,0,0,.427.023h2a1.868,1.868,0,0,0,.455-.033,2.523,2.523,0,0,0,.453-.22,1.333,1.333,0,0,0,.391-.269.705.705,0,0,0,.053-.338v-6.395h1.555v6.565a1.083,1.083,0,0,0,.031.329.528.528,0,0,0,.193.195c.111.079.178.143.193.195a1.074,1.074,0,0,1,.031.329v.827h-.651a1.664,1.664,0,0,1-.453-.042,1.439,1.439,0,0,1-.342-.212c-.2-.146-.3-.287-.3-.42h-.074c0,.134-.138.274-.409.42a3.144,3.144,0,0,1-.453.221A2.171,2.171,0,0,1,106.072,191.617Z" transform="translate(-35.981 -179.805)" fill="#fff"/>
    <path id="Path_154" data-name="Path 154" d="M107.26,183.179h.648a1.612,1.612,0,0,1,.453.042,1.439,1.439,0,0,1,.342.212c.2.146.3.287.3.42h.073c0-.134.137-.274.409-.42a2.638,2.638,0,0,1,.453-.219,1.95,1.95,0,0,1,.455-.034h1.706a1.464,1.464,0,0,1,.887.338l.444.336-1.111.845-.22-.171a1,1,0,0,0-.26-.142,2.129,2.129,0,0,0-.427-.025h-.795a2.049,2.049,0,0,0-.455.033,2.71,2.71,0,0,0-.453.22,1.387,1.387,0,0,0-.391.271.7.7,0,0,0-.053.338v6.395H107.7v-6.566a1.1,1.1,0,0,0-.031-.328.538.538,0,0,0-.193-.195.5.5,0,0,1-.195-.193,1.209,1.209,0,0,1-.026-.33Z" transform="translate(-31.815 -179.805)" fill="#fff"/>
    <path id="Path_155" data-name="Path 155" d="M111.789,183.179h.648a1.61,1.61,0,0,1,.455.042,1.512,1.512,0,0,1,.344.212c.2.146.294.287.294.42h.077c0-.134.133-.274.407-.42a2.409,2.409,0,0,1,.455-.219,1.9,1.9,0,0,1,.453-.034H118.2a1.48,1.48,0,0,1,.889.338l.443.336a1.022,1.022,0,0,1,.444.845v6.918h-1.555v-6.566a1.287,1.287,0,0,0-.027-.328.539.539,0,0,0-.193-.195,1.062,1.062,0,0,0-.26-.142,2.129,2.129,0,0,0-.427-.025h-2.371a2.071,2.071,0,0,0-.455.033,2.849,2.849,0,0,0-.453.22,1.378,1.378,0,0,0-.388.271.691.691,0,0,0-.056.338v6.395h-1.555v-6.566a1.283,1.283,0,0,0-.027-.328.541.541,0,0,0-.2-.195.518.518,0,0,1-.193-.193,1.257,1.257,0,0,1-.027-.33Z" transform="translate(-28.603 -179.805)" fill="#fff"/>
    <path id="Path_156" data-name="Path 156" d="M124.321,190.943h-.074c0,.134-.137.274-.407.42a3.236,3.236,0,0,1-.453.221,2.148,2.148,0,0,1-.455.033h-3.169a1.461,1.461,0,0,1-.887-.338l-.444-.336a1.024,1.024,0,0,1-.444-.845v-2.024a1.018,1.018,0,0,1,.444-.844l.444-.338a1.461,1.461,0,0,1,.887-.338h3.316a2.265,2.265,0,0,1,.448.026.772.772,0,0,1,.239.145.453.453,0,0,1,.221.335h.073v-2.009a1.139,1.139,0,0,0-.027-.328c-.015-.05-.082-.115-.193-.195a.952.952,0,0,0-.26-.142,2.087,2.087,0,0,0-.424-.025h-3a1.61,1.61,0,0,0-.455.042,2.1,2.1,0,0,0-.453.3l-1.113-.845.444-.336a2.336,2.336,0,0,1,.455-.3,1.6,1.6,0,0,1,.453-.042h4.353a1.472,1.472,0,0,1,.889.338l.443.336a1.026,1.026,0,0,1,.448.845v5.045a1.12,1.12,0,0,0,.027.329.528.528,0,0,0,.193.195c.111.079.178.143.193.195a1.073,1.073,0,0,1,.031.329v.827h-.648a1.671,1.671,0,0,1-.455-.042,1.475,1.475,0,0,1-.344-.212C124.421,191.217,124.321,191.077,124.321,190.943Zm-4.777-2.516v1.317a1.121,1.121,0,0,0,.027.329.528.528,0,0,0,.193.195.912.912,0,0,0,.261.143,2.155,2.155,0,0,0,.427.023h2.256a1.868,1.868,0,0,0,.455-.033,2.52,2.52,0,0,0,.453-.22,1.334,1.334,0,0,0,.391-.269.705.705,0,0,0,.053-.338v-1.148a1.126,1.126,0,0,0-.027-.329c-.015-.051-.082-.115-.193-.195a.872.872,0,0,0-.26-.142,1.934,1.934,0,0,0-.424-.027h-2.7a1.952,1.952,0,0,0-.427.027.9.9,0,0,0-.261.142.527.527,0,0,0-.193.195A1.127,1.127,0,0,0,119.543,188.426Z" transform="translate(-24.207 -179.805)" fill="#fff"/>
    <path id="Path_157" data-name="Path 157" d="M131.218,183.99h.073c.012-.1.13-.226.354-.372l.277-.185a2.634,2.634,0,0,1,.453-.219,1.929,1.929,0,0,1,.455-.034h2.945a1.48,1.48,0,0,1,.891.338l.444.336a1.031,1.031,0,0,1,.444.845v6.918H136v-6.566a1.118,1.118,0,0,0-.029-.328.537.537,0,0,0-.193-.195,1.029,1.029,0,0,0-.258-.142,2.153,2.153,0,0,0-.427-.025h-2.036a2.049,2.049,0,0,0-.455.033,2.586,2.586,0,0,0-.453.22c-.284.159-.434.3-.448.438v6.566h-1.555v-6.566a1.142,1.142,0,0,0-.027-.328.538.538,0,0,0-.193-.195.957.957,0,0,0-.261-.142,2.087,2.087,0,0,0-.424-.025h-1.872a2.07,2.07,0,0,0-.455.033,2.771,2.771,0,0,0-.455.22,1.358,1.358,0,0,0-.386.271.671.671,0,0,0-.056.338v6.395h-1.557v-6.566a1.312,1.312,0,0,0-.026-.328.557.557,0,0,0-.2-.195.527.527,0,0,1-.195-.193,1.373,1.373,0,0,1-.026-.33v-.825h.648a1.6,1.6,0,0,1,.453.042,1.476,1.476,0,0,1,.344.212c.2.146.294.287.294.42h.077c0-.134.133-.274.409-.42a2.361,2.361,0,0,1,.453-.219,1.93,1.93,0,0,1,.455-.034h2.777a1.467,1.467,0,0,1,.887.338C131.071,183.732,131.208,183.887,131.218,183.99Z" transform="translate(-19.933 -179.805)" fill="#fff"/>
    <path id="Path_158" data-name="Path 158" d="M140.2,190.1l1.111.845-.444.336a2.394,2.394,0,0,1-.453.3,1.688,1.688,0,0,1-.455.042h-4.948a1.461,1.461,0,0,1-.887-.338l-.444-.336a1.025,1.025,0,0,1-.444-.845v-5.4a1.023,1.023,0,0,1,.444-.845l.444-.336a1.471,1.471,0,0,1,.887-.338h4.317a1.721,1.721,0,0,1,.887.338l.465.336a.967.967,0,0,1,.444.845v3.458h-6.333v1.587a1.143,1.143,0,0,0,.026.329.558.558,0,0,0,.193.195.96.96,0,0,0,.261.143,2.156,2.156,0,0,0,.427.023h3.591a1.568,1.568,0,0,0,.455-.041A2.33,2.33,0,0,0,140.2,190.1Zm-.632-3.038v-2.009a1.308,1.308,0,0,0-.026-.328.569.569,0,0,0-.193-.195,1.1,1.1,0,0,0-.262-.142,2.129,2.129,0,0,0-.427-.025H135.7a2.107,2.107,0,0,0-.427.025,1.037,1.037,0,0,0-.261.142.569.569,0,0,0-.193.195,1.162,1.162,0,0,0-.026.328v2.009Z" transform="translate(-13.393 -179.805)" fill="#fff"/>
  </g>
  <g id="Group_77" data-name="Group 77" transform="translate(231.254 20.206)">
    <path id="Path_159" data-name="Path 159" d="M178.77,98.565h2.155a3.678,3.678,0,0,1,2.595.788,3.23,3.23,0,0,1,.838,2.457,2.8,2.8,0,0,1-1.983,3q2.154.4,2.154,3.106a3.162,3.162,0,0,1-.781,2.292,2.976,2.976,0,0,1-2.234.807H178.77Zm1.822,1.28v4.329a2.215,2.215,0,0,0,1.53-.5,2.259,2.259,0,0,0,.477-1.633,2.667,2.667,0,0,0-.414-1.728A2.085,2.085,0,0,0,180.592,99.845Zm0,5.571v4.338a2.4,2.4,0,0,0,1.562-.436,2.156,2.156,0,0,0,.465-1.627,2.564,2.564,0,0,0-.472-1.777A2.12,2.12,0,0,0,180.592,105.416Z" transform="translate(-178.77 -98.145)" fill="#fff"/>
    <path id="Path_160" data-name="Path 160" d="M189.12,109.662h-1.76v-1.037h-.053a1.993,1.993,0,0,1-1.743,1.152,2.1,2.1,0,0,1-1.6-.775q-.7-.778-.694-3.483a8.362,8.362,0,0,1,.523-3.466,1.841,1.841,0,0,1,1.8-1.057,1.675,1.675,0,0,1,.969.252,3.153,3.153,0,0,1,.754.811h.053v-.937h1.76Zm-2.875-1.28a.885.885,0,0,0,.891-.733,9.549,9.549,0,0,0,.224-2.493,8.112,8.112,0,0,0-.2-2.174.827.827,0,0,0-.851-.631.9.9,0,0,0-.9.587,6.078,6.078,0,0,0-.251,2.119,11.6,11.6,0,0,0,.2,2.566A.87.87,0,0,0,186.245,108.382Z" transform="translate(-175.583 -96.791)" fill="#fff"/>
    <path id="Path_161" data-name="Path 161" d="M189.814,101.1v.821h.044a2.131,2.131,0,0,1,1.822-.939,1.794,1.794,0,0,1,2.036,2.024v6.664h-1.735v-6.2q0-1.261-1.1-1.261a1,1,0,0,0-.8.338,1.354,1.354,0,0,0-.3.923v6.2h-1.76V101.1Z" transform="translate(-172.202 -96.799)" fill="#fff"/>
    <path id="Path_162" data-name="Path 162" d="M199.03,111.166h-1.853l-2.612-4.565h-.043v4.565h-1.759V98.3h1.759v7.983h.043l2.308-3.653h1.842l-2.36,3.865Z" transform="translate(-168.846 -98.295)" fill="#fff"/>
    <path id="Path_163" data-name="Path 163" d="M206.414,111.015h-1.449l-3.485-8.545-.043,0v8.541h-1.649V98.565h1.47l3.494,8.542.044.009V98.565h1.619Z" transform="translate(-163.865 -98.145)" fill="#fff"/>
    <path id="Path_164" data-name="Path 164" d="M210.9,109.662h-1.757v-1.037h-.056a1.983,1.983,0,0,1-1.742,1.152,2.105,2.105,0,0,1-1.607-.775c-.46-.519-.694-1.679-.694-3.483a8.357,8.357,0,0,1,.525-3.466,1.843,1.843,0,0,1,1.8-1.057,1.682,1.682,0,0,1,.969.252,3.149,3.149,0,0,1,.75.811h.056v-.937H210.9Zm-2.875-1.28a.893.893,0,0,0,.9-.733,9.8,9.8,0,0,0,.222-2.493,8.076,8.076,0,0,0-.2-2.174.822.822,0,0,0-.851-.631.893.893,0,0,0-.894.587,6.078,6.078,0,0,0-.251,2.119,11.261,11.261,0,0,0,.2,2.566A.865.865,0,0,0,208.026,108.382Z" transform="translate(-160.136 -96.791)" fill="#fff"/>
    <path id="Path_165" data-name="Path 165" d="M219.522,109.67h-1.76v-6.225q0-1.24-1.051-1.241c-.757,0-1.138.5-1.138,1.484v5.982h-1.737v-6.342a1.161,1.161,0,0,0-.292-.8.97.97,0,0,0-.749-.322c-.771,0-1.159.453-1.159,1.358v6.108h-1.759v-8.541h1.783v.771a2.566,2.566,0,0,1,1.95-.919,1.922,1.922,0,0,1,1.825,1.067A2.662,2.662,0,0,1,217.548,101q1.974,0,1.974,2.062Z" transform="translate(-156.71 -96.799)" fill="#fff"/>
    <path id="Path_166" data-name="Path 166" d="M222.7,105.676h-3.948a7.847,7.847,0,0,0,.21,2.094.931.931,0,0,0,.991.708.833.833,0,0,0,.814-.41,2.988,2.988,0,0,0,.227-1.291h1.6q-.074,3-2.788,3-2.92,0-2.918-4.2,0-4.585,3.023-4.582a2.746,2.746,0,0,1,1.971.789q.82.792.82,3.273Zm-1.772-1.241a5.261,5.261,0,0,0-.224-1.823.813.813,0,0,0-.814-.553.882.882,0,0,0-.918.581,5.414,5.414,0,0,0-.22,1.8Z" transform="translate(-151.742 -96.791)" fill="#fff"/>
  </g>
  <g id="Group_78" data-name="Group 78" transform="translate(32.208 19.334)">
    <path id="Path_167" data-name="Path 167" d="M68.709,111.82a4.593,4.593,0,0,1-1.849.4,4.448,4.448,0,0,1-3.2-1.3q-1.349-1.3-1.349-5.436,0-4.484,1.349-6.037A4.179,4.179,0,0,1,66.933,97.9a9.02,9.02,0,0,1,1.776.22v1.7a3.9,3.9,0,0,0-1.309-.251,2.517,2.517,0,0,0-2.053,1.11q-.851,1.112-.851,4.383a19.4,19.4,0,0,0,.186,3.046,3.091,3.091,0,0,0,.858,1.75,2.33,2.33,0,0,0,1.69.651,4.3,4.3,0,0,0,1.478-.338Z" transform="translate(-62.313 -97.645)" fill="#fff"/>
    <path id="Path_168" data-name="Path 168" d="M71.965,102.319a3.39,3.39,0,0,0-1.933.472c-.385.29-.574.939-.574,1.943v5.728H67.465V100.91h1.993v1.409H69.5a2.6,2.6,0,0,1,2.328-1.551l.133.022Z" transform="translate(-58.659 -96.045)" fill="#fff"/>
    <path id="Path_169" data-name="Path 169" d="M77.477,106H73.06a8.916,8.916,0,0,0,.234,2.345,1.043,1.043,0,0,0,1.111.794.939.939,0,0,0,.913-.459,3.372,3.372,0,0,0,.25-1.445h1.789q-.085,3.359-3.121,3.359-3.261,0-3.261-4.7,0-5.122,3.381-5.124a3.067,3.067,0,0,1,2.2.884q.918.885.918,3.662ZM75.5,104.616a5.86,5.86,0,0,0-.253-2.04.911.911,0,0,0-.911-.617.985.985,0,0,0-1.026.649,6.064,6.064,0,0,0-.248,2.007Z" transform="translate(-56.17 -96.045)" fill="#fff"/>
    <path id="Path_170" data-name="Path 170" d="M80.793,97.735h1.955v14.417H80.815v-1.28h-.046a2.2,2.2,0,0,1-2.017,1.412,2.338,2.338,0,0,1-1.408-.472,2.413,2.413,0,0,1-.894-1.311,10.929,10.929,0,0,1-.255-2.811,16.551,16.551,0,0,1,.217-3.206,2.742,2.742,0,0,1,.829-1.509,2.27,2.27,0,0,1,1.559-.54,2.161,2.161,0,0,1,1.945,1.278h.048Zm.022,9.489a8.882,8.882,0,0,0-.246-2.51.967.967,0,0,0-.988-.738,1.029,1.029,0,0,0-1.022.777,8.5,8.5,0,0,0-.273,2.568,9.642,9.642,0,0,0,.256,2.65.993.993,0,0,0,.991.793,1.032,1.032,0,0,0,1-.824A9.284,9.284,0,0,0,80.815,107.224Z" transform="translate(-52.468 -97.735)" fill="#fff"/>
    <path id="Path_171" data-name="Path 171" d="M81.5,99.337a.913.913,0,0,1,.321-.69,1.13,1.13,0,0,1,1.521,0,.909.909,0,0,1,.318.69.9.9,0,0,1-.318.693,1.148,1.148,0,0,1-1.528,0A.914.914,0,0,1,81.5,99.337Zm.1,2.918h1.942v9.553H81.6Z" transform="translate(-48.705 -97.391)" fill="#fff"/>
    <path id="Path_172" data-name="Path 172" d="M88.27,103.2H87.012v8.144H85.046V103.2H83.783V101.79h1.263v-2.6h1.966v2.6H88.27Z" transform="translate(-47.087 -96.926)" fill="#fff"/>
    <path id="Path_173" data-name="Path 173" d="M96.609,111.82a4.587,4.587,0,0,1-1.849.4,4.435,4.435,0,0,1-3.194-1.3q-1.351-1.3-1.352-5.436,0-4.484,1.352-6.037A4.172,4.172,0,0,1,94.833,97.9a8.991,8.991,0,0,1,1.776.22v1.7a3.881,3.881,0,0,0-1.308-.251,2.514,2.514,0,0,0-2.051,1.11q-.856,1.112-.855,4.383a19.163,19.163,0,0,0,.188,3.046,3.07,3.07,0,0,0,.858,1.75,2.326,2.326,0,0,0,1.692.651,4.283,4.283,0,0,0,1.475-.338Z" transform="translate(-42.527 -97.645)" fill="#fff"/>
    <path id="Path_174" data-name="Path 174" d="M101.831,110.462H99.865V109.3h-.06a2.231,2.231,0,0,1-1.95,1.292,2.356,2.356,0,0,1-1.8-.87q-.774-.869-.778-3.9a9.356,9.356,0,0,1,.588-3.874,2.063,2.063,0,0,1,2.01-1.187,1.876,1.876,0,0,1,1.082.283,3.494,3.494,0,0,1,.844.908h.06V100.91h1.966Zm-3.215-1.431a.994.994,0,0,0,1-.822,10.669,10.669,0,0,0,.251-2.786,8.992,8.992,0,0,0-.227-2.432.918.918,0,0,0-.949-.705,1,1,0,0,0-1,.657,6.778,6.778,0,0,0-.282,2.371,12.869,12.869,0,0,0,.22,2.868A.974.974,0,0,0,98.616,109.031Z" transform="translate(-38.933 -96.045)" fill="#fff"/>
    <path id="Path_175" data-name="Path 175" d="M105.115,102.319a3.4,3.4,0,0,0-1.933.472c-.383.29-.574.939-.574,1.943v5.728h-1.993V100.91h1.993v1.409h.048a2.606,2.606,0,0,1,2.326-1.551l.133.022Z" transform="translate(-35.15 -96.045)" fill="#fff"/>
    <path id="Path_176" data-name="Path 176" d="M108.691,97.735h1.957v14.417h-1.933v-1.28h-.046a2.2,2.2,0,0,1-2.017,1.412,2.334,2.334,0,0,1-1.408-.472,2.462,2.462,0,0,1-.9-1.311,11.067,11.067,0,0,1-.25-2.811,16.618,16.618,0,0,1,.214-3.206,2.772,2.772,0,0,1,.827-1.509,2.279,2.279,0,0,1,1.562-.54,2.161,2.161,0,0,1,1.943,1.278h.046Zm.024,9.489a8.9,8.9,0,0,0-.244-2.51.967.967,0,0,0-.991-.738,1.022,1.022,0,0,0-1.017.777,8.412,8.412,0,0,0-.279,2.568,9.558,9.558,0,0,0,.258,2.65,1,1,0,0,0,.991.793,1.029,1.029,0,0,0,1-.824A9.345,9.345,0,0,0,108.715,107.224Z" transform="translate(-32.68 -97.735)" fill="#fff"/>
  </g>
  <g id="Group_79" data-name="Group 79" transform="translate(33.502 121.674)">
    <path id="Path_177" data-name="Path 177" d="M69.115,167.641a5.357,5.357,0,0,1-.747,3.139,2.63,2.63,0,0,1-2.28,1.026,2.6,2.6,0,0,1-2.249-1.06,5.258,5.258,0,0,1-.769-3.1,5.4,5.4,0,0,1,.745-3.162,2.987,2.987,0,0,1,4.533.047A5.3,5.3,0,0,1,69.115,167.641Zm-4.6,0a5.4,5.4,0,0,0,.374,2.368,1.364,1.364,0,0,0,2.4-.011,7.555,7.555,0,0,0,0-4.718,1.268,1.268,0,0,0-1.2-.727,1.255,1.255,0,0,0-1.195.716A5.435,5.435,0,0,0,64.519,167.641Z" transform="translate(-63.07 -163.46)" fill="#fff"/>
    <path id="Path_178" data-name="Path 178" d="M71.277,171.65H69.848v-5.235c0-.624.017-1.121.048-1.487-.094.089-.207.187-.344.3s-.591.447-1.366,1.018l-.718-.825,2.617-1.876h1.191Z" transform="translate(-59.95 -163.415)" fill="#fff"/>
    <path id="Path_179" data-name="Path 179" d="M77.437,171.691H71.4V170.7l2.294-2.1a18.105,18.105,0,0,0,1.349-1.345,3.1,3.1,0,0,0,.484-.746,1.857,1.857,0,0,0,.154-.747,1.094,1.094,0,0,0-.364-.866,1.469,1.469,0,0,0-1-.316,2.917,2.917,0,0,0-.988.171,4.854,4.854,0,0,0-1.1.621l-.774-.858a5.147,5.147,0,0,1,1.441-.81,4.573,4.573,0,0,1,1.492-.24,3.128,3.128,0,0,1,1.991.59,1.921,1.921,0,0,1,.75,1.59,2.588,2.588,0,0,1-.217,1.043,4.115,4.115,0,0,1-.665,1.017,14.045,14.045,0,0,1-1.489,1.417l-1.545,1.362v.056h4.227Z" transform="translate(-57.16 -163.456)" fill="#fff"/>
    <path id="Path_180" data-name="Path 180" d="M81.274,165.448a1.779,1.779,0,0,1-.494,1.283,2.556,2.556,0,0,1-1.388.69v.047a2.822,2.822,0,0,1,1.608.6,1.673,1.673,0,0,1,.535,1.291,2.08,2.08,0,0,1-.908,1.806,4.478,4.478,0,0,1-2.581.634,6.315,6.315,0,0,1-2.494-.437V170.2a5.882,5.882,0,0,0,1.2.4,5.711,5.711,0,0,0,1.219.139,2.77,2.77,0,0,0,1.545-.349,1.221,1.221,0,0,0,.511-1.082,1.015,1.015,0,0,0-.567-.954,3.924,3.924,0,0,0-1.776-.3h-.774v-1.059h.785q2.133,0,2.133-1.342a.944.944,0,0,0-.374-.805,1.782,1.782,0,0,0-1.1-.283,3.622,3.622,0,0,0-.974.132,4.687,4.687,0,0,0-1.1.508l-.7-.909a4.976,4.976,0,0,1,2.842-.822,3.635,3.635,0,0,1,2.1.526A1.68,1.68,0,0,1,81.274,165.448Z" transform="translate(-54.217 -163.456)" fill="#fff"/>
  </g>
  <g id="Group_82" data-name="Group 82" transform="translate(217.557 130.768)">
    <g id="Group_80" data-name="Group 80" transform="translate(29.806 1.158)">
      <path id="Path_181" data-name="Path 181" d="M189.691,170.045h6.17a1.231,1.231,0,0,1,.747.286l.374.283a.857.857,0,0,1,.374.708v7.38a.859.859,0,0,1-.374.71l-.374.285a1.234,1.234,0,0,1-.747.282h-6.17a1.234,1.234,0,0,1-.747-.282l-.374-.285a.859.859,0,0,1-.374-.71v-7.38a.857.857,0,0,1,.374-.708l.374-.283A1.231,1.231,0,0,1,189.691,170.045Zm6.356,8.362v-6.786a.961.961,0,0,0-.024-.277.446.446,0,0,0-.162-.16.866.866,0,0,0-.217-.122,1.716,1.716,0,0,0-.361-.022h-5.015a1.729,1.729,0,0,0-.361.022.864.864,0,0,0-.217.122.445.445,0,0,0-.162.16.958.958,0,0,0-.024.277v6.786a.93.93,0,0,0,.024.276.448.448,0,0,0,.162.165.8.8,0,0,0,.217.12,1.847,1.847,0,0,0,.361.022h5.015a1.833,1.833,0,0,0,.361-.022.8.8,0,0,0,.217-.12.449.449,0,0,0,.162-.165A.933.933,0,0,0,196.047,178.407Z" transform="translate(-188.195 -170.045)" fill="#fff"/>
      <path id="Path_182" data-name="Path 182" d="M195.62,172.913l-.735-.7,2.2-2.172h1.822v9.936h-1.215V171.21a.847.847,0,0,1,.048-.367l-.048-.042Z" transform="translate(-183.451 -170.045)" fill="#fff"/>
      <path id="Path_183" data-name="Path 183" d="M205.735,170.045h1.248l-8.242,11.214h-1.185Z" transform="translate(-181.556 -170.045)" fill="#fff"/>
      <path id="Path_184" data-name="Path 184" d="M203.7,175.6l.731-.554a.8.8,0,0,1,.438-.184v-.072a.784.784,0,0,1-.438-.184l-.514-.369a.569.569,0,0,1-.246-.483v-2.428a.852.852,0,0,1,.374-.708l.373-.283a1.228,1.228,0,0,1,.749-.286h4.767a1.239,1.239,0,0,1,.747.286l.374.283a.861.861,0,0,1,.374.708v2.428a.569.569,0,0,1-.251.483l-.513.369a.775.775,0,0,1-.438.184v.072a.785.785,0,0,1,.438.184l.73.554a.632.632,0,0,1,.221.553V178.7a.866.866,0,0,1-.373.71c-.084.056-.212.151-.374.285a1.246,1.246,0,0,1-.749.282h-5.141a1.23,1.23,0,0,1-.747-.282c-.167-.134-.294-.229-.374-.285a.86.86,0,0,1-.374-.71v-2.555A.63.63,0,0,1,203.7,175.6Zm5.422-.156h-3.147a1.333,1.333,0,0,0-.311.022.971.971,0,0,0-.263.162l-.345.255a.7.7,0,0,0-.232.213.913.913,0,0,0-.031.3v2.015a.931.931,0,0,0,.024.276.435.435,0,0,0,.162.165.754.754,0,0,0,.217.12,1.78,1.78,0,0,0,.357.022h3.989a1.754,1.754,0,0,0,.357-.022.719.719,0,0,0,.22-.12.458.458,0,0,0,.164-.165,1.072,1.072,0,0,0,.024-.276v-2.015a.8.8,0,0,0-.034-.3.733.733,0,0,0-.234-.213l-.34-.255a1.027,1.027,0,0,0-.267-.162A1.313,1.313,0,0,0,209.121,175.44Zm.234-4.4H205.74a1.645,1.645,0,0,0-.357.022.809.809,0,0,0-.217.122c-.094.065-.15.118-.164.16a.961.961,0,0,0-.024.277v1.847a.987.987,0,0,0,.031.313.8.8,0,0,0,.217.213l.407.3a.786.786,0,0,0,.241.134,1.8,1.8,0,0,0,.368.022h2.617a1.774,1.774,0,0,0,.364-.022.773.773,0,0,0,.243-.134l.405-.3a.8.8,0,0,0,.217-.213.921.921,0,0,0,.033-.313v-1.847a1.234,1.234,0,0,0-.022-.277.456.456,0,0,0-.164-.16.818.818,0,0,0-.22-.122A1.656,1.656,0,0,0,209.355,171.04Z" transform="translate(-177.354 -170.045)" fill="#fff"/>
      <path id="Path_185" data-name="Path 185" d="M211.385,170.045h6.172a1.244,1.244,0,0,1,.749.286l.373.283a.861.861,0,0,1,.374.708v7.38a.864.864,0,0,1-.374.71l-.373.285a1.246,1.246,0,0,1-.749.282h-6.172a1.246,1.246,0,0,1-.749-.282l-.374-.285a.866.866,0,0,1-.373-.71v-7.38a.864.864,0,0,1,.373-.708l.374-.283A1.243,1.243,0,0,1,211.385,170.045Zm6.358,8.362v-6.786a1.129,1.129,0,0,0-.022-.277.454.454,0,0,0-.164-.16.817.817,0,0,0-.22-.122,1.645,1.645,0,0,0-.357-.022h-5.016a1.643,1.643,0,0,0-.357.022.767.767,0,0,0-.22.122.455.455,0,0,0-.164.16,1.107,1.107,0,0,0-.024.277v6.786a1.073,1.073,0,0,0,.024.276.458.458,0,0,0,.164.165.717.717,0,0,0,.22.12,1.753,1.753,0,0,0,.357.022h5.016a1.755,1.755,0,0,0,.357-.022.76.76,0,0,0,.22-.12.457.457,0,0,0,.164-.165A1.094,1.094,0,0,0,217.743,178.407Z" transform="translate(-172.81 -170.045)" fill="#fff"/>
    </g>
    <g id="Group_81" data-name="Group 81">
      <path id="Path_186" data-name="Path 186" d="M172.609,173.08h.027a.732.732,0,0,1,.036-.154l1.239-3.625h.578l-1.509,4.145h-.714l-1.509-4.145h.578l1.234,3.625A.65.65,0,0,1,172.609,173.08Z" transform="translate(-170.756 -169.301)" fill="#fff"/>
      <path id="Path_187" data-name="Path 187" d="M173.188,173.446l1.559-4.145h.767l1.593,4.145h-.545l-.34-.856h-2.164l-.326.856Zm1.955-3.79h-.027a.428.428,0,0,1-.046.171l-.879,2.376h1.894l-.9-2.376A.445.445,0,0,1,175.143,169.656Z" transform="translate(-169.031 -169.301)" fill="#fff"/>
      <path id="Path_188" data-name="Path 188" d="M178.861,173.033v.413h-2.81V169.3h.547v3.732Z" transform="translate(-167.001 -169.301)" fill="#fff"/>
      <path id="Path_189" data-name="Path 189" d="M178.053,169.3h.547v4.145h-.547Z" transform="translate(-165.581 -169.301)" fill="#fff"/>
      <path id="Path_190" data-name="Path 190" d="M179.133,173.446V169.3h2.407a.473.473,0,0,1,.311.12l.624.472a.317.317,0,0,1,.157.238v2.487a.317.317,0,0,1-.157.238l-.624.472a.471.471,0,0,1-.311.118Zm2.954-1.006v-2.132a.324.324,0,0,0-.156-.238l-.315-.237a.468.468,0,0,0-.311-.118H179.68v3.318h1.625a.476.476,0,0,0,.311-.118l.315-.238A.322.322,0,0,0,182.087,172.44Z" transform="translate(-164.815 -169.301)" fill="#fff"/>
      <path id="Path_191" data-name="Path 191" d="M171.346,173.866h3.432v.414h-1.443v3.734h-.547V174.28h-1.443Z" transform="translate(-170.338 -166.758)" fill="#fff"/>
      <path id="Path_192" data-name="Path 192" d="M176.629,173.866h.543v4.148h-.543v-1.926h-2.367v1.926h-.547v-4.148h.547V175.7h2.367Z" transform="translate(-168.658 -166.758)" fill="#fff"/>
      <path id="Path_193" data-name="Path 193" d="M176.5,173.866h2.407a.51.51,0,0,1,.311.118l.157.118a.363.363,0,0,1,.155.3v1.384a.371.371,0,0,1-.162.308l-.161.126a.508.508,0,0,1-.3.106h-.364l.668.947a.944.944,0,0,0,.1.128.5.5,0,0,0,.133.081l.07.034a.39.39,0,0,1,.137.095.454.454,0,0,1,.019.173v.232h-.162a.735.735,0,0,1-.161-.012.658.658,0,0,1-.144-.078l-.123-.078a.733.733,0,0,1-.238-.23l-.865-1.263h-.935v1.661H176.5Zm.547.414v1.66h1.62a.752.752,0,0,0,.15-.009.433.433,0,0,0,.089-.05.163.163,0,0,0,.067-.068.411.411,0,0,0,.01-.117v-1.171a.409.409,0,0,0-.01-.117.172.172,0,0,0-.067-.068.437.437,0,0,0-.089-.05.75.75,0,0,0-.15-.009Z" transform="translate(-166.682 -166.758)" fill="#fff"/>
      <path id="Path_194" data-name="Path 194" d="M181.975,173.866h.543v3.614a.359.359,0,0,1-.154.3l-.157.118a.515.515,0,0,1-.313.118h-2.21a.519.519,0,0,1-.311-.118l-.157-.118a.365.365,0,0,1-.156-.3v-3.614h.547v3.489a.394.394,0,0,0,.01.115.163.163,0,0,0,.067.069.345.345,0,0,0,.091.05.724.724,0,0,0,.149.009h1.73a.7.7,0,0,0,.15-.009.281.281,0,0,0,.091-.05.193.193,0,0,0,.07-.069.4.4,0,0,0,.01-.115Z" transform="translate(-164.866 -166.758)" fill="#fff"/>
    </g>
    <path id="Path_195" data-name="Path 195" d="M182.986,171.316v5.05l4.179-2.524Z" transform="translate(-162.083 -168.179)" fill="#fff" fill-rule="evenodd"/>
  </g>
</svg>
