<svg xmlns="http://www.w3.org/2000/svg" width="25" height="25" viewBox="0 0 25 25">
  <g id="Group_914" data-name="Group 914" transform="translate(-315 -160)">
    <g id="Group_913" data-name="Group 913">
      <circle id="Ellipse_59" data-name="Ellipse 59" cx="12.5" cy="12.5" r="12.5" transform="translate(315 160)" fill="#8dc73d"/>
    </g>
    <g id="Group_72" data-name="Group 72" transform="translate(322 167)">
      <path id="Path_127" data-name="Path 127" d="M10.556.657a2.243,2.243,0,0,0-3.173,0l-6.27,6.27A.438.438,0,0,0,1,7.119L.016,10.657a.438.438,0,0,0,.542.539l3.538-1a.438.438,0,0,0,.191-.731L2.056,7.223l5.2-5.2L9.186,3.959,5.207,7.927a.438.438,0,0,0,.619.62l4.73-4.717a2.243,2.243,0,0,0,0-3.173ZM3.141,9.552,1.07,10.14l.58-2.084Zm6.8-6.342-.131.13L7.873,1.407,8,1.277A1.367,1.367,0,0,1,9.937,3.21Z" transform="translate(0)" fill="#fff"/>
    </g>
  </g>
</svg>
