<svg xmlns="http://www.w3.org/2000/svg" width="25.16" height="23.286" viewBox="0 0 25.16 23.286">
  <g id="Group_920" data-name="Group 920" transform="translate(-20 -422)">
    <g id="box" transform="translate(-3 381.283)">
      <path id="Path_123" data-name="Path 123" d="M126.4,101.776l9.375-5.413-4.409-2.546-9.375,5.413Z" transform="translate(-93.642 -50.234)" fill="#8dc73d"/>
      <path id="Path_124" data-name="Path 124" d="M32.395,158.5,23,153.085v10.827l9.395,5.413Z" transform="translate(0 -106.301)" fill="#8dc73d"/>
      <rect id="Rectangle_172" data-name="Rectangle 172" width="1.026" height="1.026" transform="translate(40.709 57.74)" fill="#8dc73d"/>
      <path id="Path_125" data-name="Path 125" d="M211,158.5v10.827l5.129-2.966v-7.816a1.622,1.622,0,0,1,1.614-1.63h1.345a1.325,1.325,0,0,1,1.264-.972h-.012v-2.857Z" transform="translate(-177.85 -106.301)" fill="#8dc73d"/>
      <rect id="Rectangle_173" data-name="Rectangle 173" width="3.293" height="1.134" rx="0.567" transform="translate(41.951 50.397)" fill="#8dc73d"/>
      <path id="Path_126" data-name="Path 126" d="M43.6,43.148l-4.21-2.431L30.013,46.13l4.21,2.431Z" transform="translate(-6.634 0)" fill="#8dc73d"/>
      <path id="Path_127" data-name="Path 127" d="M328.255,238H326.9a1.293,1.293,0,0,1-1.25.918h-2.18a1.293,1.293,0,0,1-1.25-.918h-1.36a.865.865,0,0,0-.858.874v10.912a.844.844,0,0,0,.858.849h7.4a.853.853,0,0,0,.868-.849V238.874a.874.874,0,0,0-.868-.874Zm-7.338,2.539a.377.377,0,0,1,.375-.38h1.78a.383.383,0,0,1,.382.38v.254a.379.379,0,0,1-.38.377.364.364,0,0,1-.359-.255h-1.042v1.026h.015a.378.378,0,1,1,0,.756h-.4a.375.375,0,0,1-.375-.378Zm0,3.454a.378.378,0,0,1,.378-.378h1.782a.378.378,0,0,1,.378.378v1.782a.378.378,0,0,1-.378.378H321.3a.378.378,0,0,1-.378-.378Zm.771,5.615h-.4a.365.365,0,0,1-.375-.365v-1.78a.388.388,0,0,1,.375-.392h1.78a.394.394,0,0,1,.382.392v.364a.38.38,0,1,1-.76,0h-1.022v1.026h.015a.378.378,0,0,1,0,.756Zm2.789-1.472-1.374,1.374a.378.378,0,0,1-.535,0l-.6-.6a.378.378,0,1,1,.535-.535l.337.337,1.107-1.107a.378.378,0,0,1,.535.535Zm0-6.978-1.374,1.374a.378.378,0,0,1-.535,0l-.6-.6a.378.378,0,1,1,.535-.535l.337.337,1.107-1.107a.378.378,0,1,1,.535.535Zm3.343,7.586h-2.374a.378.378,0,0,1,0-.756h2.374a.378.378,0,0,1,0,.756Zm0-3.455h-2.374a.378.378,0,0,1,0-.756h2.374a.378.378,0,0,1,0,.756Zm0-3.455h-2.374a.378.378,0,0,1,0-.756h2.374a.378.378,0,0,1,0,.756Z" transform="translate(-280.964 -186.631)" fill="#8dc73d"/>
    </g>
  </g>
</svg>
