<svg xmlns="http://www.w3.org/2000/svg" width="21.956" height="25.092" viewBox="0 0 21.956 25.092">
  <g id="Group_921" data-name="Group 921" transform="translate(-21 -480)">
    <path id="Icon_awesome-user" data-name="Icon awesome-user" d="M10.978,12.546A6.273,6.273,0,1,0,4.7,6.273,6.273,6.273,0,0,0,10.978,12.546Zm4.391,1.568H14.55a8.531,8.531,0,0,1-7.145,0H6.587A6.588,6.588,0,0,0,0,20.7V22.74a2.353,2.353,0,0,0,2.352,2.352H19.6a2.353,2.353,0,0,0,2.352-2.352V20.7A6.588,6.588,0,0,0,15.369,14.114Z" transform="translate(21 480)" fill="#8dc73d"/>
  </g>
</svg>
