<svg xmlns="http://www.w3.org/2000/svg" width="33.93" height="20.227" viewBox="0 0 33.93 20.227">
  <path id="Path_133" data-name="Path 133" d="M32.951,110.562a.979.979,0,0,0,.979-.979v-5.22a.979.979,0,0,0-.979-.979H11.419v4.894a.979.979,0,1,1-1.957,0v-4.894H.979a.979.979,0,0,0-.979.979v5.22a.979.979,0,0,0,.979.979,2.936,2.936,0,1,1,0,5.872.979.979,0,0,0-.979.979v5.22a.979.979,0,0,0,.979.979H9.461v-4.894a.979.979,0,1,1,1.957,0v4.894H32.951a.979.979,0,0,0,.979-.979v-5.22a.979.979,0,0,0-.979-.979,2.936,2.936,0,1,1,0-5.872ZM11.419,114.8a.979.979,0,0,1-1.957,0v-2.61a.979.979,0,1,1,1.957,0Z" transform="translate(0 -103.385)" fill="#8dc73d"/>
</svg>
